<svg height="90" viewBox="0 0 90 90" width="90" xmlns="http://www.w3.org/2000/svg"><g fill="#21609b" fill-rule="evenodd" transform="translate(-.9807 -9.4171)"><path d="m88.802 75.972-.40215 1.0417c-6.8512 13.339-18.989 21.525-36.303 21.886-8.0939.16674-15.806-1.9097-20.844-4.1686-10.873-4.8846-20.017-13.944-25.011-23.623-7.1641-13.875-8.4558-33.176 6.4402-47.592.22952 0-1.8067 3.1259-1.5772 3.1259l-.40999 1.3339c-10.734 33.607 22.337 62.406 54.485 59.112 7.7261-.79154 17.579-5.0229 23.623-11.116"/><path d="m69.348 62.076c8.088.05591 16.536-3.7243 21.538-9.0316-4.3765 11.11-17.049 18.252-34.044 15.98-14.229-1.9038-27.784-16.223-29.181-30.571-1.0211-10.442 2.6188-16.674 8.6157-24.234-2.0843 3.9538-2.8631 7.0032-3.0573 8.9482-2.2785 22.588 18.044 38.79 36.128 38.908"/><path d="m90.075 34.021c-1.2574 2.8837-8.497 8.3303-11.694 9.011-12.659 2.6963-20.766-3.3064-25.012-10.137-.63166-1.0211-1.7989-3.8067-2.0078-4.5158-1.6468-5.5996-.88962-14.069 4.0234-18.454-1.4801 4.1686-1.6959 9.011-.91709 12.159.47178 1.9038 1.9097 5.2259 3.3486 7.3161 2.6188 3.8076 4.2794 4.7326 7.6427 6.7541 1.5144.91022 3.1397 1.64 3.842 1.841 3.1887.93769 9.9212 3.4114 20.774-3.9744"/></g></svg>